<svg width="119" height="29" viewBox="0 0 119 29" fill="none" xmlns="http://www.w3.org/2000/svg">
<path d="M62.4883 21H73.668V17.4375H66.5195V3.96094H62.4883V21ZM81.1797 21.2344C84.8945 21.2344 87.4961 18.75 87.4961 15.1406C87.4961 11.5312 84.8945 9.03516 81.1797 9.03516C77.3945 9.03516 74.8398 11.5781 74.8398 15.1406C74.8398 18.7031 77.3945 21.2344 81.1797 21.2344ZM81.1797 17.8945C79.6914 17.8945 78.6133 16.7109 78.6133 15.1406C78.6133 13.5469 79.6562 12.3867 81.168 12.3867C82.6328 12.3867 83.7109 13.5117 83.7109 15.1406C83.7109 16.7461 82.5977 17.8945 81.168 17.8945H81.1797ZM93.2383 21.2227C94.8789 21.2227 95.7109 20.8711 96.5195 20.4141L95.5938 17.6602C95.1836 17.8711 94.6914 17.9414 94.4336 17.9414C93.7188 17.9414 93.543 17.3789 93.543 16.6172V12.3281H96.3906V9.26953H93.543V5.12109L89.793 5.51953V9.26953H88.4688V12.3281H89.793V17.3203C89.793 19.9805 91.2344 21.2227 93.2383 21.2227ZM101.138 21.2227C102.778 21.2227 103.61 20.8711 104.419 20.4141L103.493 17.6602C103.083 17.8711 102.591 17.9414 102.333 17.9414C101.618 17.9414 101.442 17.3789 101.442 16.6172V12.3281H104.29V9.26953H101.442V5.12109L97.6923 5.51953V9.26953H96.3681V12.3281H97.6923V17.3203C97.6923 19.9805 99.1338 21.2227 101.138 21.2227ZM111.321 21.2344C115.036 21.2344 117.638 18.75 117.638 15.1406C117.638 11.5312 115.036 9.03516 111.321 9.03516C107.536 9.03516 104.981 11.5781 104.981 15.1406C104.981 18.7031 107.536 21.2344 111.321 21.2344ZM111.321 17.8945C109.833 17.8945 108.755 16.7109 108.755 15.1406C108.755 13.5469 109.798 12.3867 111.31 12.3867C112.774 12.3867 113.853 13.5117 113.853 15.1406C113.853 16.7461 112.739 17.8945 111.31 17.8945H111.321Z" fill="#F6B434"/>
<path fill-rule="evenodd" clip-rule="evenodd" d="M14.5 21V5H17.5V21H14.5ZM6 18C7.65685 18 9 16.6569 9 15C9 13.3431 7.65685 12 6 12C4.34315 12 3 13.3431 3 15C3 16.6569 4.34315 18 6 18ZM6 21C9.31371 21 12 18.3137 12 15C12 11.6863 9.31371 9 6 9C2.68629 9 0 11.6863 0 15C0 18.3137 2.68629 21 6 21ZM26 18C27.6569 18 29 16.6569 29 15C29 13.3431 27.6569 12 26 12C24.3431 12 23 13.3431 23 15C23 16.6569 24.3431 18 26 18ZM26 21C29.3137 21 32 18.3137 32 15C32 11.6863 29.3137 9 26 9C22.6863 9 20 11.6863 20 15C20 18.3137 22.6863 21 26 21ZM40.5 18C38.8431 18 37.5 16.6569 37.5 15V9H34.5V15C34.5 18.3137 37.1863 21 40.5 21C42.292 21 43.9006 20.2144 45 18.9687C46.0994 20.2144 47.708 21 49.5 21C52.8137 21 55.5 18.3137 55.5 15V9H52.5V15C52.5 16.6569 51.1569 18 49.5 18C47.8431 18 46.5 16.6569 46.5 15V9H43.5V15C43.5 16.6569 42.1569 18 40.5 18ZM3 23C3 24.6569 4.34315 26 6 26C7.65685 26 9 24.6569 9 23H12C12 26.3137 9.31371 29 6 29C2.68629 29 0 26.3137 0 23H3Z" fill="white"/>
</svg>
